HIERARCHY
ROOT Hips
{
  OFFSET 41.8797 101.404 187.467
  CHANNELS 6 Xposition Yposition Zposition Zrotation Xrotation Yrotation
  JOINT RightUpLeg
  {
    OFFSET -8.9458 -8.66707 0.101652
    CHANNELS 3 Zrotation Xrotation Yrotation
    JOINT RightLeg
    {
      OFFSET 0 -44.4227 1.3727
      CHANNELS 3 Zrotation Xrotation Yrotation
      JOINT RightFoot
      {
        OFFSET 0.253549 -42.0924 -1.46059
        CHANNELS 3 Zrotation Xrotation Yrotation
        JOINT RightToes
        {
          OFFSET 0.04 -4.41509 8.4991
          CHANNELS 3 Zrotation Xrotation Yrotation
          End Site
          {
            OFFSET -0.08 -0.137448 9.77979
          }
        }
      }
    }
  }
  JOINT Spine
  {
    OFFSET 0 11.8905 0
    CHANNELS 3 Zrotation Xrotation Yrotation
    JOINT Spine1
    {
      OFFSET 0 25.6574 0.127663
      CHANNELS 3 Zrotation Xrotation Yrotation
      JOINT HEad
      {
        OFFSET 0 8.73416 0.011341
        CHANNELS 3 Zrotation Xrotation Yrotation
        End Site
        {
          OFFSET -0.29 12.7742 2.51395
        }
      }
      JOINT LeftShoulder1
      {
        OFFSET 8.99 -0.362252 -0.22
        CHANNELS 3 Zrotation Xrotation Yrotation
        JOINT LeftArm
        {
          OFFSET 10.2827 -0.00338 0.322123
          CHANNELS 3 Zrotation Xrotation Yrotation
          JOINT LeftForeArm
          {
            OFFSET 32.7669 0.099144 -1.42434
            CHANNELS 3 Zrotation Xrotation Yrotation
            JOINT LeftHand
            {
              OFFSET 27.5643 0.085362 1.02216
              CHANNELS 3 Zrotation Xrotation Yrotation
              End Site
              {
                OFFSET 16.7443 -0.6 1.50291
              }
            }
          }
        }
      }
      JOINT RightShoulder
      {
        OFFSET -8.99 -0.362252 -0.22
        CHANNELS 3 Zrotation Xrotation Yrotation
        JOINT RightArm
        {
          OFFSET -10.2827 -0.00338 0.322123
          CHANNELS 3 Zrotation Xrotation Yrotation
          JOINT RightForeArm
          {
            OFFSET -32.8971 0.099144 -1.42434
            CHANNELS 3 Zrotation Xrotation Yrotation
            JOINT RightHand
            {
              OFFSET -27.4921 0.085362 1.02216
              CHANNELS 3 Zrotation Xrotation Yrotation
              End Site
              {
                OFFSET -16.6312 -0.6 1.50291
              }
            }
          }
        }
      }
    }
  }
  JOINT LeftUpLeg
  {
    OFFSET 8.9458 -8.66707 0.101652
    CHANNELS 3 Zrotation Xrotation Yrotation
    JOINT LeftLeg
    {
      OFFSET 0 -44.4227 1.3727
      CHANNELS 3 Zrotation Xrotation Yrotation
      JOINT LeftFoot
      {
        OFFSET -0.253549 -42.0924 -1.46059
        CHANNELS 3 Zrotation Xrotation Yrotation
        JOINT LeftToes
        {
          OFFSET -0.04 -4.41509 8.4991
          CHANNELS 3 Zrotation Xrotation Yrotation
          End Site
          {
            OFFSET 0.08 -0.047448 9.77979
          }
        }
      }
    }
  }
}
MOTION
Frames:	10
Frame Time:	0.0166667
43.7951 102.018 24.9815 -1.74918 -0.110984 176.348 -8.18642 -25.4527 -6.2204 18.5561 31.891 -16.3324 21.383 -7.43112 0.449337 -10.9313 -6.33435 -17.0642 -0.736121 2.88281 -0.186878 -1.03212 22.1764 0.221516 1.79048 0.156496 7.7207 -1.98785e-016 6.36111e-015 -3.97569e-016 -92.586 -35.8605 -17.41 -16.3056 16.2081 -29.9818 0.368473 9.90896 -0.00117926 -7.38389 0.108396 1.95149 93.4517 -27.0944 16.5248 18.088 14.3172 14.8293 -0.369625 9.91382 0.00119886 8.80268 -17.6464 2.5665 -24.3452 63.5658 39.6051 -9.32939 -10.7908 -0.496619 -3.27782 8.86662 -0.149736 
44.1586 102.059 23.9046 -1.62306 -0.183497 176.512 -8.04021 -24.8978 -6.20929 18.9849 32.1525 -16.293 21.3176 -8.22947 0.597098 -11.3065 -6.79344 -17.5928 -0.217075 2.93728 -0.20828 -1.01525 22.4514 0.24774 1.8202 0.0978581 7.60316 -3.97569e-016 0 -0 -92.3684 -36.2388 -16.5246 -16.4474 16.2346 -30.1855 0.368473 9.90896 -0.00117926 -7.70261 0.0949503 2.05583 93.6573 -26.2818 17.1861 18.2726 14.3822 15.2287 -0.369625 9.91382 0.00119886 8.94034 -19.6975 1.87114 -27.1482 65.8989 42.9207 -9.1328 -10.2246 -0.442661 -0.440355 8.4341 0.575153 
44.4882 102.031 22.8739 -1.44084 -0.254943 176.65 -7.83551 -24.4662 -6.26039 19.3659 32.6152 -16.2037 21.3269 -9.06893 0.756054 -11.5602 -7.26431 -17.9239 0.325922 2.98761 -0.231184 -0.930827 22.686 0.261695 1.78534 0.096958 7.58823 -5.96354e-016 0 3.97569e-016 -92.1105 -36.5734 -15.566 -16.5796 16.2708 -30.4275 0.368473 9.90896 -0.00117926 -7.86931 0.0902974 2.27236 93.7152 -25.6733 17.9126 18.3604 14.4388 15.5674 -0.369625 9.91382 0.00119886 9.10712 -21.7502 1.52429 -29.8442 68.0039 45.6182 -8.94777 -10.4802 -0.453995 0.514635 8.13444 0.815321 
44.7926 101.979 21.8719 -1.29296 -0.338786 176.769 -7.66662 -24.1008 -6.33971 19.7092 33.1424 -16.0844 21.3388 -9.90573 0.914324 -11.7497 -7.73694 -18.152 0.809423 3.02358 -0.250466 -0.84172 22.8908 0.271461 1.72932 0.0890338 7.63979 -3.97569e-016 3.18055e-015 3.97569e-016 -91.857 -36.8414 -14.6238 -16.7287 16.3045 -30.661 0.368473 9.90896 -0.00117926 -8.04148 0.0848082 2.50228 93.8123 -25.251 18.708 18.3437 14.514 16.0039 -0.369625 9.91382 0.00119886 9.21292 -23.8107 1.25207 -32.5597 69.7244 48.1751 -8.91472 -11.0012 -0.496407 0.653451 7.9371 0.838814 
45.0821 101.943 20.8819 -1.29074 -0.469041 176.855 -7.6457 -23.7899 -6.46537 19.99 33.6538 -15.8808 21.2935 -10.7033 1.06294 -11.8716 -8.22506 -18.269 1.1301 3.03285 -0.251922 -0.768273 23.0841 0.275575 1.65006 -0.0140671 7.75917 0 0 -1.19271e-015 -91.6906 -36.9915 -13.8389 -16.9361 16.315 -30.7866 0.368473 9.90896 -0.00117926 -8.48762 0.0617725 2.6114 94.2886 -25.079 19.6308 18.1411 14.6451 16.7515 -0.369625 9.91382 0.00119886 9.16616 -25.9081 0.89745 -35.1188 70.8482 50.5956 -9.2725 -11.0567 -0.524629 0.46158 8.16074 0.803645 
45.3521 101.91 19.9121 -1.33387 -0.587123 176.958 -7.68276 -23.4591 -6.63502 20.2499 34.1337 -15.6553 21.1922 -11.4892 1.20498 -12.0553 -8.6209 -18.4974 1.38679 3.02875 -0.266345 -0.816785 23.2034 0.299556 1.66336 -0.0804094 7.89389 -1.98785e-016 3.18055e-015 -3.97569e-016 -91.4696 -37.1021 -13.0312 -17.1394 16.3266 -30.9017 0.368473 9.90896 -0.00117926 -8.75377 0.0496724 2.78472 94.6991 -25.114 20.5489 17.8597 14.7718 17.4927 -0.369625 9.91382 0.00119886 9.04431 -27.9437 0.562802 -37.198 71.4901 52.5808 -9.69127 -11.0272 -0.549327 -0.0292899 8.43813 0.689514 
45.6012 101.877 18.9667 -1.34694 -0.619127 177.154 -7.72249 -22.9933 -6.88057 20.547 34.5368 -15.461 20.9669 -12.3258 1.34505 -12.5175 -8.61083 -19.2184 1.66187 3.02304 -0.353494 -1.27056 23.0974 0.401819 2.04255 0.099026 8.01521 4.41391e-032 -6.36111e-015 3.97569e-016 -90.9499 -37.3104 -11.9193 -17.2464 16.3692 -31.1144 0.368473 9.90896 -0.00117926 -8.13492 0.0933554 3.31477 94.4444 -25.4157 21.2849 17.6102 14.8309 17.8497 -0.369625 9.91382 0.00119886 8.90399 -29.8161 0.300503 -38.4819 71.6926 53.9033 -9.9052 -11.0289 -0.563515 -0.703211 8.52299 0.51049 
45.8299 101.85 18.041 -1.36698 -0.644986 177.351 -7.76798 -22.5041 -7.11643 20.8191 34.872 -15.2764 20.7657 -13.0724 1.46976 -13.005 -8.81821 -19.9463 1.90144 3.00797 -0.412269 -1.61852 23.0508 0.48204 2.30887 0.204265 8.05318 -1.98785e-016 -3.18055e-015 -3.97569e-016 -90.4975 -37.3729 -10.9321 -17.3866 16.4032 -31.2942 0.368473 9.90896 -0.00117926 -7.65451 0.126912 3.74469 94.3214 -25.7539 22.036 17.3216 14.8878 18.2123 -0.369625 9.91382 0.00119886 8.76331 -31.5649 0.124934 -39.0089 71.4605 54.6262 -9.96218 -11.1235 -0.575135 -1.33086 8.37097 0.321843 
46.0346 101.83 17.1333 -1.40582 -0.737859 177.467 -7.80334 -22.092 -7.24394 21.006 35.1364 -15.0981 20.786 -13.5783 1.56681 -13.2758 -9.92592 -20.1814 2.07123 2.97677 -0.319231 -1.23067 23.4299 0.418725 1.86962 -0.166118 7.85406 4.41391e-032 -6.36111e-015 3.97569e-016 -90.5587 -36.9651 -10.5929 -17.7166 16.3863 -31.3025 0.368473 9.90896 -0.00117926 -8.45847 0.0759358 3.52565 95.2019 -25.8509 23.0215 16.9114 14.9946 18.9325 -0.369625 9.91382 0.00119886 8.67363 -33.2142 0.111955 -38.8909 70.7963 54.9934 -9.75911 -11.4904 -0.592666 -1.60044 7.73308 0.18318 
46.226 101.825 16.2386 -1.46195 -0.844278 177.556 -7.84629 -21.6763 -7.33951 21.1598 35.3206 -14.925 20.8052 -13.9364 1.63518 -13.5613 -11.4371 -20.381 2.19521 2.93822 -0.201182 -0.74907 23.8401 0.334635 1.33968 -0.558783 7.64047 1.98785e-016 3.18055e-015 -3.97569e-016 -90.6986 -36.506 -10.3727 -18.0644 16.3597 -31.2706 0.368473 9.90896 -0.00117926 -9.46862 0.0111364 3.22599 96.2189 -25.9056 23.9716 16.5086 15.1124 19.7505 -0.369625 9.91382 0.00119886 8.60592 -34.7091 0.140648 -38.0757 69.7033 54.7464 -9.48373 -11.8921 -0.607684 -1.64913 6.9774 0.096472 
